<svg style="fill: #d8a3ad;" id="Layer_1" enable-background="new 0 0 511.989 511.989" height="512" viewBox="0 0 511.989 511.989" width="512" xmlns="http://www.w3.org/2000/svg"><g><g><path d="m338.351 278.527c0-13.823-11.232-25.069-25.039-25.069h-102.221c-13.822 0-25.068 11.246-25.068 25.069 0 13.807 11.246 25.04 25.068 25.04h102.221c13.806-.001 25.039-11.234 25.039-25.04zm-25.04 10.039h-102.22c-5.552 0-10.068-4.504-10.068-10.04 0-5.552 4.517-10.069 10.068-10.069h102.221c5.535 0 10.039 4.517 10.039 10.069 0 5.536-4.504 10.04-10.04 10.04z"/><path d="m510.433 339.479c-2.028-12.551-6.975-16.272-19.611-14.747-4.462.538-8.844 1.335-13.135 2.362v-29.276c0-4.142-3.357-7.5-7.5-7.5s-7.5 3.358-7.5 7.5v33.978c-20.671 8.093-38.323 22.039-50.563 40.213-14.511-21.816-37.046-36.881-63.788-42.57-11.678-2.518-16.876.69-19.839 12.267-7.114 27.563-3.088 55.573 11.336 78.875 4.993 8.064 10.65 15.128 16.851 21.138h-165.512c19.211-14.442 33.578-34.337 41.304-57.632 1.305-3.931-.825-8.175-4.756-9.479l-166.814-55.365v-88.133h401.78v31.628c0 4.142 3.357 7.5 7.5 7.5s7.5-3.358 7.5-7.5v-39.07c0-.02.003-.038.003-.058s-.003-.038-.003-.058v-15.242c0-14.899-12.121-27.02-27.02-27.02h-2.545v-19.372c12.296-3.385 21.357-14.658 21.357-28.015v-58.734c0-16.007-13.036-29.03-29.059-29.03h-357.241c-16.023 0-29.059 13.023-29.059 29.03v58.733c0 13.357 9.061 24.63 21.357 28.015v19.372h-2.55c-14.899 0-27.021 12.121-27.021 27.02v105.955l-30.352-10.074c-1.886-.626-3.946-.478-5.726.415-1.778.892-3.129 2.454-3.755 4.342-20.7 62.407 13.228 130.043 75.632 150.774 12.348 4.096 25.039 6.128 37.681 6.128 15.499 0 30.914-3.07 45.499-9.13h212.374c10.292 5.38 21.465 8.446 33.197 8.974 1.205.054 2.407.081 3.609.081 28.511-.001 56.166-15.173 76.355-42.048 17.899-23.794 25.006-53.719 20.014-84.247zm-441.314-205.576v-58.734c0-7.736 6.307-14.03 14.059-14.03h357.243c7.752 0 14.059 6.294 14.059 14.03v58.733c0 7.752-6.307 14.059-14.059 14.059h-160.379c-4.143 0-7.5 3.358-7.5 7.5s3.357 7.5 7.5 7.5h153.08v18.328h-342.646v-18.328h154.516c4.143 0 7.5-3.358 7.5-7.5s-3.357-7.5-7.5-7.5h-161.814c-7.752 0-14.059-6.306-14.059-14.058zm-8.213 74.407c0-6.628 5.393-12.02 12.021-12.02h377.74c6.628 0 12.02 5.392 12.02 12.02v7.801h-401.781zm122.932 167.538c-5.64 12.484-14.686 22.944-26.224 30.328l-23.49-46.828zm-39.632 37.056c-12.827 4.842-26.632 5.842-40.025 2.9l16.521-49.756zm-54.262-1.823c-12.766-5.786-23.116-15.051-30.301-26.265l46.821-23.488zm-39.953-79.656 49.729 16.505-46.8 23.477c-4.685-12.46-5.92-26.291-2.929-39.982zm36.441 114.061c-52.162-17.328-81.566-72.146-68.229-124.611l17.487 5.804c-10.198 42.85 13.965 87.263 56.522 101.38 8.896 2.951 18.041 4.416 27.148 4.416 13.193 0 26.304-3.076 38.438-9.161 18.262-9.158 32.356-24.171 40.332-42.721l17.498 5.808c-9.556 23.196-26.944 41.96-49.595 53.321-24.895 12.485-53.166 14.532-79.601 5.764zm310.135 2.852c-17.283-4.928-32.564-17.211-43.981-35.652-12.252-19.791-15.648-43.669-9.564-67.236.002-.005.003-.011.005-.017.174-.682 1.47-1.476 2.167-1.325 23.823 5.067 43.685 18.749 55.95 38.564.875 1.393 1.732 2.891 2.614 4.541-5.396 13.662-8.926 38.381-7.191 61.125zm81.864-33.625c-17.846 23.756-42.061 36.838-66.578 36.015-2.333-22.461 1.406-49.415 6.909-60.409 0-.001.001-.002.002-.003 14.187-28.268 41.105-46.744 73.855-50.69 1.123-.136 2.828 1.146 3.009 2.262 4.327 26.465-1.779 52.327-17.197 72.825z"/></g></g></svg>