<svg style="fill: #d8a3ad;" id="Layer_1" enable-background="new 0 0 480.047 480.047" height="512" viewBox="0 0 480.047 480.047" width="512" xmlns="http://www.w3.org/2000/svg"><g><path d="m454.979 27.712c-3.426-13.158-14.245-23.22-27.563-25.633-63.864-11.577-75.75 29.043-187.26 27.153-.088-.002-.178-.002-.266 0-111.231 1.871-123.574-38.683-187.259-27.152-13.318 2.413-24.137 12.474-27.563 25.632-15.044 57.783-33.894 170.552 8.888 276.606 2.284 5.663 6.596 10.208 12.143 12.799 14.912 6.964 31.356 10.508 48.877 10.534 2.592.004 3.575 1.855 3.877 2.651.35.922.679 2.696-1.046 4.233-4.785 4.26-9.813 8.379-14.942 12.243-10.667 8.034-12.688 23.405-4.215 34.05 23.378 29.368 51.638 54.984 83.992 76.135 47.075 30.773 107.675 30.783 154.765 0 32.354-21.15 60.613-46.767 83.992-76.135 8.334-10.469 6.631-25.88-4.215-34.051-5.126-3.86-10.154-7.98-14.942-12.243-1.725-1.536-1.396-3.311-1.046-4.232.303-.796 1.286-2.647 3.877-2.651 4.418-.006 7.995-3.593 7.989-8.012-.006-4.418-3.623-7.956-8.011-7.988-18.381.026-27.15 22.637-13.448 34.835 5.113 4.552 10.481 8.95 15.955 13.072 3.551 2.676 4.125 7.787 1.324 11.306-22.313 28.03-49.307 52.492-80.229 72.707-41.751 27.295-95.487 27.306-137.255 0-30.922-20.215-57.916-44.677-80.229-72.707-2.807-3.525-2.22-8.636 1.323-11.305 5.477-4.126 10.845-8.524 15.955-13.073 13.728-12.222 4.909-34.809-13.447-34.835-15.172-.022-29.346-3.061-42.129-9.03-1.864-.871-3.312-2.394-4.076-4.288-41.062-101.79-22.79-210.718-8.244-266.589 1.862-7.15 7.723-12.614 14.932-13.92 56.878-10.308 66.503 27.408 184.54 27.409 118.05.001 127.615-37.726 184.54-27.409 7.209 1.306 13.07 6.77 14.932 13.92 14.546 55.871 32.818 164.8-8.243 266.589-1.653 4.098.329 8.76 4.426 10.412 4.095 1.651 8.759-.328 10.412-4.426 42.783-106.055 23.933-218.824 8.889-276.607z"/><path d="m214.414 312.918c41.729-6.378 87.9 4.017 93.211 20.985 1.32 4.216 5.806 6.565 10.024 5.245 4.216-1.319 6.565-5.808 5.245-10.024-4.399-14.056-19.694-24.435-44.231-30.017-20.078-4.568-45-5.315-66.667-2.006-35.653 5.449-56.101 20.14-56.101 40.304 0 16.081 9.193 32.852 25.221 46.012 39.685 32.584 97.801 25.712 128.402-10.38 2.857-3.37 2.441-8.419-.929-11.276-3.371-2.856-8.419-2.441-11.275.929-13.453 15.868-35.406 25.726-57.291 25.726-37.739 0-68.128-27.905-68.128-51.01 0-10.929 16.689-20.54 42.519-24.488z"/><path d="m204.68 243.011c19.488 19.488 51.198 19.489 70.687 0 3.125-3.125 3.125-8.189 0-11.314-3.124-3.123-8.189-3.123-11.313 0-13.25 13.25-34.81 13.25-48.06 0-3.124-3.123-8.189-3.123-11.313 0-3.125 3.125-3.125 8.189-.001 11.314z"/><path d="m146.023 96.041c-34.738 0-63 25.121-63 56s28.262 56 63 56c18.892 0 36.618-7.427 48.632-20.375 3.005-3.239 2.815-8.301-.423-11.306-3.24-3.007-8.301-2.815-11.306.423-8.996 9.696-22.447 15.258-36.902 15.258-25.916 0-47-17.944-47-40s21.084-40 47-40c24.914 0 45.526 16.567 46.925 37.718.292 4.407 4.107 7.736 8.51 7.454 4.409-.291 7.747-4.102 7.455-8.511-1.954-29.53-29.579-52.661-62.891-52.661z"/><path d="m397.023 152.041c0-26.853-21.187-49.157-49.344-54.682-4.328-.844-8.54 1.975-9.391 6.311-.85 4.336 1.975 8.54 6.311 9.391 21.105 4.141 36.424 20.534 36.424 38.98 0 22.056-21.084 40-47 40s-47-17.944-47-40c0-14.335 9.126-27.665 23.816-34.789 3.976-1.928 5.635-6.714 3.708-10.688-1.928-3.977-6.713-5.636-10.689-3.708-20.253 9.821-32.835 28.668-32.835 49.186 0 30.879 28.262 56 63 56s63-25.123 63-56.001z"/></g></svg>