<?xml version="1.0" encoding="utf-8"?>
<!-- Generator: Adobe Illustrator 24.3.0, SVG Export Plug-In . SVG Version: 6.00 Build 0)  -->
<svg version="1.1" id="Layer_1" xmlns="http://www.w3.org/2000/svg" xmlns:xlink="http://www.w3.org/1999/xlink" x="0px" y="0px"
	 viewBox="0 0 160.1 36.1" style="enable-background:new 0 0 160.1 36.1;" xml:space="preserve">
<style type="text/css">
	.st0{fill:#473242;}
</style>
<g>
	<g>
		<g>
			<path class="st0" d="M92.5,13.1L76.4,1.4l-1.5-1.1l-1.1,0.8l-16,11.6l-0.4,0.4L56.4,14l0.4,1.2l0.1,0.5l6.1,19l0.4,1.2h1.9h19.8
				h1.2l0.7-1.8l6-18.4l0.5-1.8L92.5,13.1z M75.6,3.9L88.2,13H72.6l0.8-2.3L75.6,3.9z M72.5,5.1l-1.9,6.1L70,13h-8.3L72.5,5.1z
				 M68.5,17.8L67.8,20l-6-4.4h7.5L68.5,17.8z M64.3,30.5l-4.1-12.8l6.7,4.9L64.3,30.5z M66.1,33.2l2.3-7.4l0.5-1.8l5,3.7l7.6,5.5
				l0,0C81.6,33.2,66.1,33.2,66.1,33.2z M84.9,32.5l-9-6.5l-6-4.4l1-3l1-3h18.6L84.9,32.5z"/>
		</g>
	</g>
	<g>
		<g>
			<path class="st0" d="M86.9,36.3h-24l-7.4-22.8L74.9-0.5l19.4,14.1L86.9,36.3z M63.9,35.1H86l6.8-21l-17.9-13l-17.9,13L63.9,35.1z
				 M83.7,33.9H65.2l3.5-10.8L83.7,33.9z M67,32.7h12.8l-10.5-7.5L67,32.7z M85.2,33.5L69.1,21.7l2.3-6.8h19.9L85.2,33.5z
				 M70.7,21.3l14.1,10.1l4.9-15.3H72.3L70.7,21.3z M64.3,32.4L59,15.9l8.7,6.3L64.3,32.4z M61.4,19.3l3,9l1.9-5.6L61.4,19.3z
				 M68.1,20.9l-8.3-6H70L68.1,20.9z M63.6,16.3l3.8,2.7l0.8-2.7H63.6z M90.1,13.7H71.8l3.5-10.8L90.1,13.7z M73.4,12.5h12.8L76,5
				L73.4,12.5z M70.4,13.7H59.7L73.8,3.6L70.4,13.7z M63.6,12.5h5.9l1.8-5.6L63.6,12.5z"/>
		</g>
	</g>
</g>
<g>
	<g>
		<path class="st0" d="M108.9,22v0.6c2.5,0.1,3,0.5,3,3.3v2.9c0,0.7-0.2,1.2-0.7,1.6c-0.5,0.3-1.2,0.6-2.1,0.6
			c-3.7,0-5.8-3.2-5.8-10.4c0-5.3,1.8-10.3,6.2-10.3c1.4,0,2.9,0.5,3.9,1.5c1.6,1.3,2,3,2.3,5.4h0.7c0-3.7,0-5.7,0.1-7.3h-0.7
			c-0.1,1.2-0.3,1.8-0.7,1.8c-0.2,0-0.4-0.1-0.6-0.3c-1.4-1.1-2.9-1.9-5.7-1.9c-6.3,0-10.9,4.5-10.9,11.3c0,6.8,3.7,10.8,10.7,10.8
			c1.8,0,3.5-0.7,4.9-1.5c1-0.5,1.3-0.6,1.6-0.6c0.6,0,0.8,1,0.9,1.7h0.6v-5.9c0-2.2,0.2-2.5,1.4-2.6V22c-0.9,0.1-2.3,0.1-4,0.1
			C112.4,22.1,110.1,22,108.9,22z M132.9,21.8c0-4.7-2.1-6.7-5.6-6.7c-4.3,0-7.3,2.8-7.3,8.3c0,5.5,2.9,8,6.9,8c3.3,0,5.3-2.4,6-4.7
			l-0.5-0.2c-1.2,2-2.7,2.4-3.9,2.4c-1.9,0-3.9-1.6-3.9-5.8c0-0.5,0-1,0.1-1.4H132.9z M124.5,21.3c0.2-3.9,1.3-5.4,2.7-5.4
			c1.5,0,2.1,2.5,2,5.4H124.5z M158.2,28.3v-8.1c0-2-0.2-3.1-0.9-3.9c-0.6-0.7-1.6-1.2-3.3-1.2c-2,0-3.9,0.7-5,3
			c-0.1-0.8-0.4-1.3-0.8-1.8c-0.6-0.7-1.6-1.2-3.3-1.2c-2,0-3.7,0.8-4.6,2.8v-2.7c-1.3,0.3-2.7,0.4-4.4,0.4c-0.6,0-1.2,0-1.9-0.1
			v0.6c1.5,0,1.9,0.8,1.9,2.7v9.5c0,1.7-0.5,2.2-1.9,2.2v0.6c0.8,0,2.6-0.1,4.1-0.1c1.4,0,2.9,0.1,3.5,0.1v-0.6
			c-1.1,0-1.4-0.5-1.4-2.2V20c0-2,1.3-3.5,2.9-3.5c1.4,0,1.6,1,1.6,2.5v9.3c0,1.7-0.4,2.2-1.5,2.2v0.6c0.7,0,2.3-0.1,3.7-0.1
			c1.4,0,3.1,0.1,3.8,0.1v-0.6c-1.3,0-1.7-0.5-1.7-2.2v-8.1l0-0.6c0.2-1.8,1.5-3.1,2.9-3.1c1.5,0,1.8,1,1.8,2.5v9.3
			c0,1.7-0.4,2.2-1.4,2.2v0.6c0.7,0,2.3-0.1,3.7-0.1c1.5,0,3.2,0.1,4,0.1v-0.6C158.7,30.5,158.2,30,158.2,28.3z M9.4,9.9
			c-2.7,0-6.6,0-9.3-0.1c0.1,2,0.2,4.1,0.2,5.1c0,0.9,0,1.7-0.1,2.3h0.7c1-5.1,2.6-6.7,5.4-6.7H7v17.1c0,2.4-0.5,2.8-3.2,2.8v0.6
			C4.9,31.1,7,31,9.2,31c2.2,0,4.4,0,5.7,0.1v-0.6c-2.7,0-3.2-0.4-3.2-2.8V10.5h0.7c2.8,0,4.4,1.6,5.4,6.7h0.7
			c-0.1-0.6-0.1-1.4-0.1-2.3c0-1,0.1-3.1,0.2-5.1C15.9,9.9,12,9.9,9.4,9.9z M34.8,28.3v-8.1c0-2-0.3-3.1-0.9-3.9
			c-0.6-0.7-1.6-1.2-3.3-1.2c-2.1,0-3.9,0.7-4.9,2.8V7.6C24.4,7.9,22.9,8,21.3,8C20.7,8,20,8,19.4,8v0.6c1.5,0,1.9,0.8,1.9,2.6v17.1
			c0,1.7-0.5,2.2-1.9,2.2v0.6c0.8,0,2.6-0.1,4.1-0.1c1.5,0,3,0.1,3.7,0.1v-0.6c-1.2,0-1.6-0.5-1.6-2.2V20c0-2,1.3-3.5,3-3.5
			c1.5,0,1.8,1,1.8,2.5v9.3c0,1.7-0.4,2.2-1.6,2.2v0.6c0.7,0,2.4-0.1,3.9-0.1c1.5,0,3.2,0.1,4,0.1v-0.6C35.3,30.5,34.8,30,34.8,28.3
			z M50.6,21.8c0-4.7-2.1-6.7-5.6-6.7c-4.3,0-7.3,2.8-7.3,8.3c0,5.5,2.9,8,6.9,8c3.3,0,5.3-2.4,6-4.7L50,26.6
			c-1.2,2-2.7,2.4-3.9,2.4c-1.9,0-3.9-1.6-3.9-5.8c0-0.5,0-1,0.1-1.4H50.6z M42.1,21.3c0.2-3.9,1.3-5.4,2.7-5.4c1.5,0,2.1,2.5,2,5.4
			H42.1z"/>
	</g>
</g>
</svg>
