<svg style="fill: #d8a3ad;" id="Layer_1" enable-background="new 0 0 512 512" height="512" viewBox="0 0 512 512" width="512" xmlns="http://www.w3.org/2000/svg"><g><g><path d="m504.771 312.268c-4.14-.197-7.659 2.996-7.858 7.135-2.126 44.118-11.909 86.59-28.359 123.639h-160.189c-36.79-82.969-38.365-190.076-3.715-277.702h167.635c14.324 36.252 22.854 76.942 24.712 118.027.187 4.141 3.693 7.341 7.837 7.159 4.141-.187 7.346-3.696 7.159-7.837-2.012-44.501-11.571-88.603-27.642-127.553l-29.009-78.561c-3.113-8.458-10.4-28.262-30.364-28.262h-73.021c-19.965 0-27.251 19.806-30.36 28.255l-29.008 78.558c-19.406 47.004-29.074 100.246-27.958 153.984 1.129 54.378 13.281 106.6 35.144 151.021 14.042 28.547 24.186 49.173 64.798 49.271l23.904.028 23.896-.028c40.601-.099 50.745-20.725 64.785-49.268 20.305-41.233 32.321-89.646 34.749-140.006.199-4.142-2.996-7.66-7.136-7.86zm-169.088-230.509c4.88-13.266 9.443-18.435 16.274-18.435h73.021c6.83 0 11.393 5.169 16.279 18.443l1.705 4.618h-23.43-62.155-23.401zm75.117 19.636c-3.141 9.322-11.965 16.053-22.332 16.053-10.38 0-19.215-6.731-22.359-16.053zm-82.368 0h22.178c3.506 17.687 19.145 31.064 37.858 31.064 18.699 0 34.327-13.378 37.83-31.064h22.207l18.069 48.933h-156.212zm83.913 392.995-23.868.028-23.877-.028c-28.221-.069-35.689-9.514-49.099-36.337h145.933c-13.41 26.823-20.877 36.269-49.089 36.337z"/><path d="m456.937 369.355c0-4.146-3.36-7.506-7.506-7.506h-121.927c-4.146 0-7.506 3.36-7.506 7.506s3.36 7.506 7.506 7.506h121.927c4.146 0 7.506-3.36 7.506-7.506z"/><path d="m356.156 391.978c-4.146 0-7.506 3.36-7.506 7.506s3.36 7.506 7.506 7.506h64.624c4.146 0 7.506-3.36 7.506-7.506s-3.36-7.506-7.506-7.506z"/><path d="m440.427 284.616c0-21.94-22.279-54.622-37.022-76.248-1.891-2.774-3.614-5.301-5.077-7.501-1.301-1.963-4.346-6.561-9.843-6.573-.007 0-.015 0-.022 0-5.486 0-8.553 4.585-9.864 6.545-.006.008-.011.016-.017.023-1.492 2.25-3.246 4.825-5.171 7.653-14.695 21.587-36.902 54.21-36.902 76.1 0 33.553 26.139 51.11 51.959 51.11s51.959-17.556 51.959-51.109zm-88.907 0c0-17.267 22.313-50.044 34.3-67.653.92-1.352 1.802-2.647 2.636-3.878.806 1.188 1.658 2.437 2.545 3.739 12.028 17.642 34.414 50.481 34.414 67.792 0 24.802-19.152 36.098-36.948 36.098-18.39 0-36.947-11.161-36.947-36.098z"/><path d="m195.721 301.865v-11.802c0-13.822-11.245-25.067-25.066-25.067h-102.268c-13.821 0-25.066 11.245-25.066 25.067v11.802c0 13.837 11.245 25.094 25.066 25.094h102.268c13.821 0 25.066-11.257 25.066-25.094zm-15.011 0c0 5.56-4.51 10.083-10.054 10.083h-102.269c-5.544 0-10.054-4.523-10.054-10.083v-11.802c0-5.544 4.51-10.055 10.054-10.055h102.268c5.544 0 10.054 4.511 10.054 10.055v11.802z"/><path d="m60.91 392.306c0 4.146 3.36 7.506 7.506 7.506h102.183c4.146 0 7.506-3.36 7.506-7.506s-3.36-7.506-7.506-7.506h-102.184c-4.145 0-7.505 3.36-7.505 7.506z"/><path d="m146.598 367.102c4.146 0 7.506-3.36 7.506-7.506s-3.36-7.506-7.506-7.506h-54.155c-4.146 0-7.506 3.36-7.506 7.506s3.36 7.506 7.506 7.506z"/><path d="m241.307 38.924c-26.398-25.154-52.406-36.37-84.326-36.37h-95.119l-1.212-.006c-4.359-.034-9.806-.075-13.911 4.341-4.295 4.622-4.327 11.617-3.876 17.193 1.184 14.655 15.724 31.044 33.41 31.044h16.948v20.021c-11.754 1.479-20.879 11.531-20.879 23.68v17.677c-11.655 3.282-20.227 14.002-20.227 26.692v20.228c0 22.793-.109 34.998-2.47 41.674-1.624 4.595-4.506 6.947-12.588 12.163-.922.595-5.385 3.438-6.688 4.277-30.628 19.702-30.572 29.476-30.33 70.611.023 4.045.049 8.432.049 13.206v125.73.075 48.836c0 16.247 13.204 29.464 29.434 29.464h179.997c16.231 0 29.435-13.217 29.435-29.464v-140.003c0-4.146-3.36-7.506-7.506-7.506s-7.506 3.36-7.506 7.506v82.47c-59.842 27.17-145.927 28.666-208.844 3.632v-120.741c0-4.805-.025-9.222-.05-13.294-.231-39.437-.249-42.658 23.441-57.898 1.283-.826 5.855-3.737 6.896-4.408 9.059-5.845 15.164-10.467 18.412-19.654 2.853-8.07 3.264-18.929 3.32-39.171h104.804c.056 20.242.467 31.101 3.32 39.171 2.882 8.152 8.014 12.71 15.464 17.717 1.911 1.284 8.562 5.52 9.845 6.345 23.691 15.24 23.672 18.461 23.441 57.898-.024 4.072-.05 8.489-.05 13.294 0 4.146 3.36 7.506 7.506 7.506s7.506-3.36 7.506-7.506c0-4.774.025-9.161.049-13.206.241-41.134.298-50.908-30.33-70.611-1.304-.839-7.52-4.804-9.059-5.826-6.301-4.184-8.764-6.5-10.219-10.614-2.36-6.676-2.47-18.88-2.47-41.674v-20.228c0-12.691-8.571-23.41-20.226-26.692v-17.677c0-12.149-9.125-22.201-20.88-23.68v-20.021h11.161c20.848 0 34.284 8.732 48.038 21.841l13.579 12.954c2.35 2.252 5.415 3.481 8.661 3.481.108 0 .217-.002.325-.004 3.362-.085 6.481-1.476 8.756-3.886l19.007-19.917c2.283-2.42 3.501-5.587 3.427-8.919-.073-3.365-1.452-6.485-3.883-8.79zm-226.208 403.235c30.303 11.118 65.206 16.653 100.075 16.653 38.406 0 76.731-6.718 108.769-19.998v41.18c0 7.969-6.471 14.452-14.424 14.452h-179.997c-7.953 0-14.423-6.483-14.423-14.452zm156.816-298.964v12.722h-104.789v-12.722c0-7.015 5.706-12.721 12.721-12.721h79.347c7.014 0 12.721 5.706 12.721 12.721zm-20.226-44.369v16.637h-64.336v-16.637c0-4.887 3.976-8.863 8.863-8.863h46.609c4.888 0 8.864 3.976 8.864 8.863zm-43.457-23.874v-19.827h22.577v19.826h-22.577zm118.95 2.412-11.804-11.262c-14.164-13.497-31.042-25.987-58.397-25.987h-80.708c-9.893 0-17.886-10.299-18.447-17.242-.226-2.79-.125-4.411.003-5.286.79-.041 99.152-.021 99.152-.021 28.142 0 50.264 9.638 73.967 32.223l11.804 11.261z"/></g></g></svg>