<svg style="fill: #d8a3ad;" id="Layer_1" enable-background="new 0 0 512 512" height="512" viewBox="0 0 512 512" width="512" xmlns="http://www.w3.org/2000/svg"><g><g><path d="m161.686 383.227v68.886c0 12.717 10.346 23.063 23.063 23.063h142.474c12.717 0 23.063-10.346 23.063-23.063v-68.886c0-12.717-10.346-23.063-23.063-23.063h-142.474c-12.717 0-23.063 10.346-23.063 23.063zm15 0c0-4.446 3.617-8.063 8.063-8.063h142.474c4.446 0 8.063 3.617 8.063 8.063v68.886c0 4.446-3.617 8.063-8.063 8.063h-142.474c-4.446 0-8.063-3.617-8.063-8.063z"/><path d="m253.718 408.501h59.246c4.142 0 7.5-3.358 7.5-7.5s-3.358-7.5-7.5-7.5h-59.246c-4.142 0-7.5 3.358-7.5 7.5s3.358 7.5 7.5 7.5z"/><path d="m199.007 408.501h14.712c4.142 0 7.5-3.358 7.5-7.5s-3.358-7.5-7.5-7.5h-14.712c-4.142 0-7.5 3.358-7.5 7.5s3.358 7.5 7.5 7.5z"/><path d="m291.958 426.838h-71.945c-4.142 0-7.5 3.358-7.5 7.5s3.358 7.5 7.5 7.5h71.945c4.142 0 7.5-3.358 7.5-7.5s-3.357-7.5-7.5-7.5z"/><path d="m244.326 339.069c.612.796 1.224 1.592 1.863 2.365 1.889 2.318 5.044 6.175 10.081 6.175 5.001 0 8.062-3.701 10.089-6.152.436-.527.847-1.074 1.27-1.612 15.736-2.458 30.791-10.246 42.701-22.158 12.99-12.99 21.047-29.642 22.684-46.86.242-2.442.691-6.989-2.64-10.32-3.248-3.25-7.615-2.875-10.298-2.647-11.499 1.097-22.819 5.108-32.948 11.537-1.963-19.004-9.152-36.749-20.771-50.807-2.026-2.449-5.087-6.149-10.087-6.149-5.048 0-8.207 3.876-10.062 6.152-11.5 13.912-18.667 31.414-20.728 50.159-10.136-6.447-21.495-10.472-33.084-11.577-2.56-.222-6.848-.591-10.115 2.539-.077.074-.153.15-.227.228-3.18 3.32-2.755 7.63-2.503 10.178 1.64 17.247 9.696 33.898 22.687 46.889 11.739 11.739 26.576 19.491 42.088 22.06zm43.061-51.233c8.864-7.652 19.393-12.714 30.181-14.528-2.074 12.38-8.319 24.247-17.845 33.773-6.095 6.096-13.174 10.844-20.73 14.023 4.65-10.289 7.509-21.562 8.394-33.268zm-31.103-57.826c10.599 13.718 16.41 31.374 16.41 50.001 0 18.646-5.813 36.313-16.411 50.03-10.618-13.738-16.439-31.404-16.439-50.03 0-18.592 5.811-36.233 16.44-50.001zm-31.177 57.104c.8 11.639 3.55 22.867 8.081 33.144-7.415-3.181-14.361-7.873-20.345-13.857-9.519-9.519-15.761-21.374-17.842-33.765 10.812 1.828 21.296 6.87 30.106 14.478z"/><path d="m391.91 185.276s-9.875-29.588-10.318-30.937c-7.253-22.034-11.248-34.172-37.219-34.172h-12.088v-65.045c11.097-.409 20.013-10.522 20.013-22.902v-9.298c0-12.639-9.291-22.921-20.71-22.921h-151.176c-11.419 0-20.71 10.283-20.71 22.921v9.298c0 12.37 8.901 22.476 19.985 22.901v65.047h-12.088c-25.929 0-29.933 12.125-37.202 34.135-.449 1.357-10.309 30.98-10.309 30.98-.253.757-.384 1.571-.384 2.37v96.837c0 4.142 3.358 7.5 7.5 7.5s7.5-3.358 7.5-7.5v-89.337h106.286c4.142 0 7.5-3.358 7.5-7.5s-3.358-7.5-7.5-7.5h-103.385s6.582-19.774 7.035-21.146c7.127-21.583 7.873-23.838 22.958-23.838h176.774c15.117 0 15.86 2.258 22.971 23.862.449 1.362 7.04 21.123 7.04 21.123h-99.66c-4.142 0-7.5 3.358-7.5 7.5s3.358 7.5 7.5 7.5h102.573v287.206c0 8.073-6.58 14.64-14.667 14.64h-213.286c-8.072 0-14.639-6.567-14.639-14.64v-163.257c0-4.142-3.358-7.5-7.5-7.5s-7.5 3.358-7.5 7.5v163.257c0 16.344 13.296 29.64 29.639 29.64h213.286c16.359 0 29.667-13.296 29.667-29.64v-294.708c0-1.027-.172-1.741-.386-2.376zm-74.625-65.108h-122.598v-65.027h122.599v65.027zm-136.873-80.027c-3.042 0-5.71-3.702-5.71-7.921v-9.298c0-4.22 2.668-7.921 5.71-7.921h151.177c3.042 0 5.71 3.702 5.71 7.921v9.298c0 4.22-2.668 7.921-5.71 7.921z"/></g></g></svg>